<svg xmlns="http://www.w3.org/2000/svg" width="992" height="436" viewBox="-6 -6 992 436" role="img" aria-label="Items are imported, deduplicated and triaged with a cheap yes/no ask, so select can fill the quotas before the expensive step. Only selected items get one extract call to a smart model. Your checks test its answer, a second yes/no ask confirms each claim, and decide sets the status. Items it cannot settle go to review, whose answers are new labels, and accepted items are frozen into a release. Every stage logs what it dropped. A fast model can later take over the yes/no stages.">
<title>Items are imported, deduplicated and triaged with a cheap yes/no ask, so select can fill the quotas before the expensive step. Only selected items get one extract call to a smart model. Your checks test its answer, a second yes/no ask confirms each claim, and decide sets the status. Items it cannot settle go to review, whose answers are new labels, and accepted items are frozen into a release. Every stage logs what it dropped. A fast model can later take over the yes/no stages.</title>
<defs><path id="mono_C" d="M323 -12Q195 -12 132 81Q70 174 70 349Q70 524 132 617Q195 710 323 710Q371 710 406 697Q441 684 466 662Q491 640 508 612Q525 585 538 557L466 524Q457 547 445 568Q433 588 416 604Q400 619 378 628Q355 637 323 637Q240 637 200 574Q159 511 159 406V292Q159 187 200 124Q240 61 323 61Q355 61 378 70Q400 79 416 94Q433 110 445 130Q457 151 466 174L538 141Q525 112 508 85Q491 58 466 36Q441 14 406 1Q371 -12 323 -12Z"/><path id="mono_J" d="M480 698V181Q480 137 465 101Q450 65 422 40Q395 15 357 2Q319 -12 274 -12Q194 -12 142 30Q90 71 74 146L154 163Q159 142 168 124Q176 105 190 92Q205 78 226 70Q247 62 276 62Q333 62 364 94Q396 127 396 196V625H144V698Z"/><path id="mono_L" d="M120 0V698H204V73H535V0Z"/><path id="mono_M" d="M455 350V571H447L300 212L153 571H145V350V0H68V698H176L299 390H305L428 698H532V0H455Z"/><path id="mono_N" d="M163 588H156V0H80V698H199L437 110H444V698H520V0H401Z"/><path id="mono_a" d="M495 0Q448 0 428 24Q408 48 403 84H398Q381 39 344 14Q306 -12 243 -12Q162 -12 114 30Q66 72 66 145Q66 217 118 256Q171 295 288 295H398V346Q398 403 366 432Q334 460 275 460Q223 460 190 440Q157 419 137 384L83 424Q93 444 110 463Q127 482 152 496Q177 511 209 520Q241 528 280 528Q371 528 424 482Q478 436 478 354V70H550V0ZM257 55Q288 55 314 62Q339 70 358 82Q377 95 388 112Q398 130 398 150V235H288Q216 235 183 215Q150 195 150 157V136Q150 96 178 76Q207 55 257 55Z"/><path id="mono_b" d="M95 740H175V432H179Q229 528 338 528Q433 528 486 457Q540 386 540 258Q540 130 486 59Q433 -12 338 -12Q229 -12 179 84H175V0H95ZM307 59Q377 59 416 102Q454 144 454 214V302Q454 372 416 414Q377 457 307 457Q280 457 256 450Q232 443 214 430Q196 416 186 396Q175 377 175 351V165Q175 139 186 120Q196 100 214 86Q232 73 256 66Q280 59 307 59Z"/><path id="mono_c" d="M318 -12Q262 -12 218 8Q175 27 145 62Q115 97 100 147Q84 197 84 258Q84 319 100 369Q116 419 146 454Q176 490 219 509Q262 528 317 528Q392 528 439 495Q486 462 508 409L444 375Q430 415 398 437Q365 459 317 459Q282 459 254 448Q227 436 208 415Q189 394 180 365Q170 336 170 302V214Q170 180 180 151Q189 122 208 101Q227 80 255 68Q283 57 319 57Q371 57 405 81Q439 105 459 147L516 108Q493 56 444 22Q396 -12 318 -12Z"/><path id="mono_d" d="M425 84H421Q371 -12 262 -12Q167 -12 114 59Q60 130 60 258Q60 386 114 457Q167 528 262 528Q371 528 421 432H425V740H505V0H425ZM293 59Q320 59 344 66Q368 73 386 86Q404 100 414 120Q425 139 425 165V351Q425 377 414 396Q404 416 386 430Q368 443 344 450Q320 457 293 457Q223 457 184 414Q146 372 146 302V214Q146 144 184 102Q223 59 293 59Z"/><path id="mono_e" d="M309 -12Q253 -12 208 7Q164 26 132 62Q101 97 84 146Q67 196 67 257Q67 319 84 369Q102 419 133 454Q164 490 208 509Q251 528 304 528Q356 528 398 509Q441 490 471 456Q501 423 517 377Q533 331 533 276V238H151V214Q151 180 162 151Q173 122 194 101Q214 80 244 68Q273 57 309 57Q361 57 399 81Q437 105 457 147L516 107Q493 55 440 22Q386 -12 309 -12ZM304 462Q271 462 243 450Q215 438 194 417Q174 396 162 368Q151 339 151 305V298H447V309Q447 343 436 371Q426 399 408 420Q389 440 362 451Q336 462 304 462Z"/><path id="mono_f" d="M83 68H257V448H73V516H257V622Q257 674 284 707Q312 740 371 740H544V672H337V516H544V448H337V68H521V0H83Z"/><path id="mono_g" d="M561 -59Q561 -137 496 -174Q431 -212 301 -212Q176 -212 122 -179Q67 -146 67 -84Q67 -42 89 -19Q111 4 151 15V27Q129 38 117 55Q105 72 105 98Q105 138 132 158Q158 178 198 188V192Q150 213 124 254Q97 295 97 350Q97 389 111 422Q125 455 152 478Q178 502 215 515Q252 528 297 528Q355 528 399 507V516Q399 546 413 566Q427 586 461 586H556V516H440V481Q468 457 483 424Q498 391 498 350Q498 311 484 278Q469 245 443 222Q417 198 380 185Q342 172 297 172Q284 172 272 173Q260 174 248 176Q236 174 223 170Q210 165 199 158Q188 150 181 140Q174 130 174 117Q174 94 197 86Q220 79 257 79H371Q471 79 516 42Q561 4 561 -59ZM486 -63Q486 -32 461 -14Q436 5 374 5H195Q143 -16 143 -65Q143 -99 170 -124Q197 -148 260 -148H338Q408 -148 447 -126Q486 -105 486 -63ZM297 234Q357 234 386 262Q414 290 414 336V365Q414 411 386 438Q357 466 297 466Q237 466 209 438Q181 411 181 365V336Q181 290 209 262Q237 234 297 234Z"/><path id="mono_h" d="M98 740H178V432H182Q190 451 202 468Q214 486 232 499Q249 512 273 520Q297 528 329 528Q410 528 459 476Q508 425 508 331V0H428V317Q428 388 397 422Q366 457 306 457Q282 457 259 451Q236 445 218 433Q200 421 189 402Q178 383 178 358V0H98Z"/><path id="mono_i" d="M332 630Q297 630 283 644Q269 659 269 681V697Q269 719 283 734Q297 748 332 748Q367 748 381 734Q395 719 395 697V681Q395 659 381 644Q367 630 332 630ZM106 68H292V448H106V516H372V68H546V0H106Z"/><path id="mono_j" d="M102 -132H352V448H93V516H432V-82Q432 -134 404 -167Q377 -200 318 -200H102ZM392 630Q357 630 343 644Q329 659 329 681V697Q329 719 343 734Q357 748 392 748Q427 748 441 734Q455 719 455 697V681Q455 659 441 644Q427 630 392 630Z"/><path id="mono_k" d="M105 740H185V273H189L279 358L451 516H549L335 314L574 0H475L274 268L185 187V0H105Z"/><path id="mono_l" d="M80 68H260V672H80V740H340V68H520V0H80Z"/><path id="mono_m" d="M54 0V516H128V456H132Q144 486 166 507Q188 528 231 528Q276 528 298 506Q320 483 325 447H328Q342 482 368 505Q394 528 440 528Q503 528 524 484Q546 440 546 358V0H472V345Q472 411 458 436Q445 462 409 462Q377 462 357 442Q337 421 337 379V0H263V345Q263 411 250 436Q236 462 201 462Q169 462 148 442Q128 421 128 379V0Z"/><path id="mono_n" d="M98 0V516H178V432H182Q190 451 202 468Q214 486 232 499Q249 512 273 520Q297 528 329 528Q410 528 459 476Q508 425 508 331V0H428V317Q428 388 397 422Q366 457 306 457Q282 457 259 451Q236 445 218 433Q200 421 189 402Q178 383 178 358V0Z"/><path id="mono_o" d="M300 -12Q246 -12 202 7Q159 26 128 62Q98 97 82 146Q66 196 66 258Q66 319 82 369Q98 419 128 454Q159 490 202 509Q246 528 300 528Q354 528 398 509Q441 490 472 454Q502 419 518 369Q534 319 534 258Q534 196 518 146Q502 97 472 62Q441 26 398 7Q354 -12 300 -12ZM300 57Q367 57 408 97Q449 137 449 221V295Q449 379 408 419Q367 459 300 459Q233 459 192 419Q151 379 151 295V221Q151 137 192 97Q233 57 300 57Z"/><path id="mono_one" d="M85 0V73H285V636H278L102 472L53 525L238 698H369V73H553V0Z"/><path id="mono_p" d="M95 516H175V432H179Q229 528 338 528Q433 528 486 457Q540 386 540 258Q540 130 486 59Q433 -12 338 -12Q229 -12 179 84H175V-200H95ZM307 59Q377 59 416 102Q454 144 454 214V302Q454 372 416 414Q377 457 307 457Q280 457 256 450Q232 443 214 430Q196 416 186 396Q175 377 175 351V165Q175 139 186 120Q196 100 214 86Q232 73 256 66Q280 59 307 59Z"/><path id="mono_period" d="M300 -9Q259 -9 242 8Q226 25 226 51V69Q226 95 242 112Q259 129 300 129Q341 129 358 112Q374 95 374 69V51Q374 25 358 8Q341 -9 300 -9Z"/><path id="mono_periodcentered" d="M300 235Q259 235 242 252Q226 269 226 295V313Q226 339 242 356Q259 373 300 373Q341 373 358 356Q374 339 374 313V295Q374 269 358 252Q341 235 300 235Z"/><path id="mono_q" d="M425 84H421Q371 -12 262 -12Q167 -12 114 59Q60 130 60 258Q60 386 114 457Q167 528 262 528Q371 528 421 432H425V516H505V-200H425ZM293 59Q320 59 344 66Q368 73 386 86Q404 100 414 120Q425 139 425 165V351Q425 377 414 396Q404 416 386 430Q368 443 344 450Q320 457 293 457Q223 457 184 414Q146 372 146 302V214Q146 144 184 102Q223 59 293 59Z"/><path id="mono_r" d="M77 68H228V448H77V516H308V386H313Q329 447 374 482Q418 516 487 516H559V436H462Q393 436 350 396Q308 356 308 291V68H469V0H77Z"/><path id="mono_s" d="M306 -12Q225 -12 166 16Q108 43 67 89L121 136Q158 97 202 76Q246 55 308 55Q368 55 406 76Q445 98 445 144Q445 164 438 178Q430 191 417 199Q404 207 388 212Q372 216 354 219L273 231Q246 235 214 242Q183 249 157 264Q131 280 114 306Q96 332 96 374Q96 413 112 442Q127 470 155 490Q183 509 221 518Q259 528 304 528Q374 528 426 506Q477 484 514 445L462 396Q453 407 440 418Q426 430 406 440Q387 449 361 455Q335 461 301 461Q240 461 208 440Q175 419 175 379Q175 359 182 346Q190 332 203 324Q216 316 232 312Q249 307 266 304L347 292Q375 288 406 281Q437 274 463 258Q489 243 506 217Q524 191 524 149Q524 72 464 30Q405 -12 306 -12Z"/><path id="mono_slash" d="M90 -138 438 760H510L162 -138Z"/><path id="mono_t" d="M325 0Q266 0 238 33Q211 66 211 118V448H39V516H167Q193 516 204 526Q214 537 214 563V698H291V516H526V448H291V68H526V0Z"/><path id="mono_u" d="M422 84H418Q410 65 398 48Q386 30 368 17Q351 4 327 -4Q303 -12 271 -12Q190 -12 141 40Q92 91 92 185V516H172V199Q172 128 203 94Q234 59 294 59Q318 59 341 65Q364 71 382 83Q400 95 411 114Q422 132 422 158V516H502V0H422Z"/><path id="mono_v" d="M249 0 64 516H145L219 300L299 67H303L383 300L457 516H536L351 0Z"/><path id="mono_w" d="M30 516H101L160 70H169L257 516H345L433 70H442L501 516H570L491 0H387L305 432H297L213 0H109Z"/><path id="mono_x" d="M61 0 253 262 66 516H162L240 407L302 321H306L366 407L443 516H535L346 263L540 0H444L357 121L298 203H294L237 121L153 0Z"/><path id="mono_y" d="M467 516H547L291 -113Q282 -135 271 -152Q260 -168 245 -178Q230 -189 209 -194Q188 -200 159 -200H83V-132H203L261 10L53 516H135L222 300L299 104H303L380 300Z"/><path id="title_a" d="M406 0Q325 0 321 89H309Q299 41 264 14Q229 -12 177 -12Q105 -12 69 28Q33 68 33 140Q33 222 84 262Q135 302 231 302H312V347Q312 393 292 415Q273 437 228 437Q191 437 166 420Q141 402 122 370L51 434Q80 479 124 506Q169 534 238 534Q433 534 433 350V97H479V0ZM223 77Q260 77 286 98Q312 120 312 158V227H239Q155 227 155 162V140Q155 107 173 92Q191 77 223 77Z"/><path id="title_c" d="M251 -12Q145 -12 90 54Q34 120 34 261Q34 402 90 468Q145 534 251 534Q328 534 374 499Q419 464 439 403L340 359Q332 397 312 416Q291 436 251 436Q161 436 161 328V194Q161 86 251 86Q293 86 315 106Q337 126 348 168L442 123Q396 -12 251 -12Z"/><path id="title_d" d="M357 86H343Q332 42 298 15Q265 -12 220 -12Q128 -12 84 58Q40 127 40 261Q40 395 84 464Q128 534 220 534Q265 534 298 507Q332 480 343 436H357V740H478V0H357ZM266 88Q307 88 332 108Q357 129 357 166V356Q357 393 332 414Q307 434 266 434Q219 434 193 405Q167 376 167 323V199Q167 146 193 117Q219 88 266 88Z"/><path id="title_e" d="M263 -12Q212 -12 170 4Q127 21 97 54Q67 88 50 140Q34 191 34 261Q34 402 90 468Q147 534 252 534Q357 534 414 468Q470 402 470 261V232H161V198Q161 146 190 116Q219 86 270 86Q313 86 342 104Q372 123 393 158L459 89Q430 43 381 16Q332 -12 263 -12ZM252 441Q161 441 161 333V307H343V333Q343 441 252 441Z"/><path id="title_f" d="M91 425H22V522H91V603Q91 674 122 707Q154 740 220 740H308V643H212V522H308V425H212V0H91Z"/><path id="title_g" d="M493 -46Q493 -87 480 -118Q468 -149 439 -170Q410 -191 362 -202Q314 -212 244 -212Q182 -212 140 -204Q98 -195 72 -179Q46 -163 35 -140Q24 -117 24 -88Q24 -48 46 -25Q68 -2 109 4V23Q77 31 62 53Q46 75 46 107Q46 139 68 160Q90 182 132 190V203Q47 245 47 357Q47 442 95 488Q143 534 244 534Q289 534 326 520V539Q326 610 394 610H467V516H366V496Q403 478 422 442Q441 407 441 357Q441 272 394 226Q346 181 244 181Q203 181 168 189Q154 183 147 170Q140 157 140 141Q140 121 153 111Q166 101 196 101H329Q418 101 456 63Q493 25 493 -46ZM380 -60Q380 -33 362 -19Q344 -5 302 -5H141Q119 -24 119 -61Q119 -93 140 -110Q162 -127 216 -127H275Q332 -127 356 -110Q380 -94 380 -60ZM244 264Q327 264 327 346V369Q327 451 244 451Q161 451 161 369V346Q161 264 244 264Z"/><path id="title_h" d="M66 740H187V435H201Q232 534 326 534Q396 534 434 486Q472 439 472 351V0H351V330Q351 432 275 432Q238 432 212 410Q187 389 187 350V0H66Z"/><path id="title_i" d="M126 604Q88 604 71 620Q54 637 54 665V685Q54 713 71 730Q88 746 126 746Q164 746 181 730Q198 713 198 685V665Q198 637 181 620Q164 604 126 604ZM66 522H187V0H66Z"/><path id="title_k" d="M66 740H187V395L179 287H193L254 383L358 522H495L332 317L504 0H368L248 239L187 163V0H66Z"/><path id="title_l" d="M184 0Q121 0 94 28Q66 56 66 116V740H187V97H247V0Z"/><path id="title_m" d="M66 0V522H187V435H201Q232 534 324 534Q422 534 451 431H463Q480 484 516 509Q551 534 602 534Q668 534 705 486Q742 439 742 351V0H621V330Q621 432 548 432Q513 432 488 410Q464 389 464 350V0H343V330Q343 384 325 408Q307 432 271 432Q236 432 212 410Q187 389 187 350V0Z"/><path id="title_n" d="M66 0V522H187V435H201Q232 534 326 534Q396 534 434 486Q472 439 472 351V0H351V330Q351 432 275 432Q238 432 212 410Q187 389 187 350V0Z"/><path id="title_o" d="M253 -12Q149 -12 92 54Q34 120 34 261Q34 402 92 468Q149 534 253 534Q357 534 414 468Q472 402 472 261Q472 120 414 54Q357 -12 253 -12ZM253 86Q345 86 345 194V328Q345 436 253 436Q161 436 161 328V194Q161 86 253 86Z"/><path id="title_p" d="M66 522H187V436H201Q212 480 246 507Q279 534 324 534Q416 534 460 464Q504 395 504 261Q504 127 460 58Q416 -12 324 -12Q279 -12 246 15Q212 42 201 86H187V-200H66ZM278 88Q325 88 351 117Q377 146 377 199V323Q377 376 351 405Q325 434 278 434Q237 434 212 414Q187 393 187 356V166Q187 129 212 108Q237 88 278 88Z"/><path id="title_r" d="M66 0V522H187V415H201Q210 467 238 494Q267 522 313 522H339V398H299Q242 398 214 380Q187 362 187 317V0Z"/><path id="title_s" d="M224 -12Q159 -12 110 12Q61 35 24 82L98 154Q123 119 154 101Q185 83 226 83Q302 83 302 147Q302 172 290 186Q277 201 247 206L198 215Q116 230 79 266Q42 302 42 371Q42 453 90 494Q138 534 226 534Q287 534 332 514Q376 494 409 455L338 384Q318 409 290 424Q261 439 226 439Q156 439 156 376Q156 350 170 336Q184 323 214 318L264 309Q346 294 382 258Q417 223 417 159Q417 78 367 33Q317 -12 224 -12Z"/><path id="title_t" d="M210 0Q147 0 119 28Q91 56 91 117V425H22V522H58Q84 522 94 534Q103 546 103 572V664H212V522H306V425H212V97H298V0Z"/><path id="title_u" d="M346 88H332Q302 -12 205 -12Q135 -12 98 36Q60 83 60 172V522H181V192Q181 89 257 89Q294 89 320 111Q346 133 346 172V522H467V0H346Z"/><path id="title_v" d="M162 0 8 522H130L205 244L234 103H248L277 244L352 522H469L315 0Z"/><path id="title_w" d="M16 522H135L186 278L211 110H223L253 278L311 522H433L492 278L522 110H534L559 278L612 522H724L597 0H461L400 254L377 409H364L340 254L279 0H143Z"/><path id="title_x" d="M15 0 173 267 17 522H149L242 354H255L348 522H472L318 264L478 0H345L249 176H236L138 0Z"/><path id="title_z" d="M34 0V95L275 425H42V522H412V428L170 97H418V0Z"/><marker id="ah-code" viewBox="0 0 10 10" refX="9" refY="5" markerWidth="7" markerHeight="7" orient="auto-start-reverse"><path d="M0,0 L10,5 L0,10 z" fill="#9a6208"/></marker><marker id="ah-ink" viewBox="0 0 10 10" refX="9" refY="5" markerWidth="7" markerHeight="7" orient="auto-start-reverse"><path d="M0,0 L10,5 L0,10 z" fill="#161a24"/></marker><marker id="ah-logic" viewBox="0 0 10 10" refX="9" refY="5" markerWidth="7" markerHeight="7" orient="auto-start-reverse"><path d="M0,0 L10,5 L0,10 z" fill="#4a3db0"/></marker><marker id="ah-model" viewBox="0 0 10 10" refX="9" refY="5" markerWidth="7" markerHeight="7" orient="auto-start-reverse"><path d="M0,0 L10,5 L0,10 z" fill="#0b7a78"/></marker></defs>
<rect x="412" y="0" width="156" height="56" rx="4" stroke="#0b7a78" stroke-width="1.5" fill="#0b7a78" fill-opacity="0.1" stroke-dasharray="5 4"/>
<g fill="#0b7a78" transform="translate(458.8,24.1) scale(0.01400,-0.01400)"><use href="#title_f" x="0"/><use href="#title_a" x="328"/><use href="#title_s" x="835"/><use href="#title_t" x="1284"/><use href="#title_m" x="1830"/><use href="#title_o" x="2632"/><use href="#title_d" x="3138"/><use href="#title_e" x="3682"/><use href="#title_l" x="4187"/></g>
<g fill="#586072" transform="translate(457.6,41.6) scale(0.01200,-0.01200)"><use href="#mono_J" x="0"/><use href="#mono_e" x="600"/><use href="#mono_v" x="1200"/><use href="#mono_periodcentered" x="2400"/><use href="#mono_C" x="3600"/><use href="#mono_L" x="4200"/><use href="#mono_M" x="4800"/></g>
<path d="M490,56 L490,87" fill="none" stroke="#0b7a78" stroke-width="1.5" stroke-dasharray="5 4" marker-end="url(#ah-model)"/>
<g fill="#586072" transform="translate(498,80) scale(0.01300,-0.01300)"><use href="#mono_l" x="0"/><use href="#mono_a" x="600"/><use href="#mono_t" x="1200"/><use href="#mono_e" x="1800"/><use href="#mono_r" x="2400"/></g>
<rect x="0" y="90" width="156" height="64" rx="4" stroke="#161a24" stroke-width="1.2" fill="none"/>
<g fill="#161a24" transform="translate(58.4,109.6) scale(0.01400,-0.01400)"><use href="#title_i" x="0"/><use href="#title_m" x="252"/><use href="#title_p" x="1054"/><use href="#title_o" x="1598"/><use href="#title_r" x="2104"/><use href="#title_t" x="2461"/></g>
<g fill="#586072" transform="translate(38.4,127.1) scale(0.01200,-0.01200)"><use href="#mono_i" x="0"/><use href="#mono_t" x="600"/><use href="#mono_e" x="1200"/><use href="#mono_m" x="1800"/><use href="#mono_s" x="2400"/><use href="#mono_period" x="3000"/><use href="#mono_j" x="3600"/><use href="#mono_s" x="4200"/><use href="#mono_o" x="4800"/><use href="#mono_n" x="5400"/><use href="#mono_l" x="6000"/></g>
<g fill="#586072" transform="translate(34.8,144.1) scale(0.01200,-0.01200)"><use href="#mono_o" x="0"/><use href="#mono_n" x="600"/><use href="#mono_e" x="1200"/><use href="#mono_p" x="2400"/><use href="#mono_e" x="3000"/><use href="#mono_r" x="3600"/><use href="#mono_i" x="4800"/><use href="#mono_t" x="5400"/><use href="#mono_e" x="6000"/><use href="#mono_m" x="6600"/></g>
<rect x="206" y="90" width="156" height="64" rx="4" stroke="#9a6208" stroke-width="1.5" fill="#9a6208" fill-opacity="0.1"/>
<g fill="#9a6208" transform="translate(265.3,109.6) scale(0.01400,-0.01400)"><use href="#title_d" x="0"/><use href="#title_e" x="544"/><use href="#title_d" x="1049"/><use href="#title_u" x="1593"/><use href="#title_p" x="2126"/></g>
<g fill="#586072" transform="translate(240.8,127.1) scale(0.01200,-0.01200)"><use href="#mono_e" x="0"/><use href="#mono_x" x="600"/><use href="#mono_a" x="1200"/><use href="#mono_c" x="1800"/><use href="#mono_t" x="2400"/><use href="#mono_periodcentered" x="3600"/><use href="#mono_n" x="4800"/><use href="#mono_e" x="5400"/><use href="#mono_a" x="6000"/><use href="#mono_r" x="6600"/></g>
<g fill="#586072" transform="translate(237.2,144.1) scale(0.01200,-0.01200)"><use href="#mono_e" x="0"/><use href="#mono_x" x="600"/><use href="#mono_c" x="1200"/><use href="#mono_l" x="1800"/><use href="#mono_u" x="2400"/><use href="#mono_d" x="3000"/><use href="#mono_e" x="3600"/><use href="#mono_f" x="4800"/><use href="#mono_i" x="5400"/><use href="#mono_l" x="6000"/><use href="#mono_e" x="6600"/><use href="#mono_s" x="7200"/></g>
<rect x="412" y="90" width="156" height="64" rx="4" stroke="#0b7a78" stroke-width="1.5" fill="#0b7a78" fill-opacity="0.1"/>
<g fill="#0b7a78" transform="translate(472.9,109.6) scale(0.01400,-0.01400)"><use href="#title_t" x="0"/><use href="#title_r" x="334"/><use href="#title_i" x="691"/><use href="#title_a" x="943"/><use href="#title_g" x="1450"/><use href="#title_e" x="1942"/></g>
<g fill="#586072" transform="translate(446.8,127.1) scale(0.01200,-0.01200)"><use href="#mono_a" x="0"/><use href="#mono_s" x="600"/><use href="#mono_k" x="1200"/><use href="#mono_periodcentered" x="2400"/><use href="#mono_y" x="3600"/><use href="#mono_e" x="4200"/><use href="#mono_s" x="4800"/><use href="#mono_slash" x="5400"/><use href="#mono_n" x="6000"/><use href="#mono_o" x="6600"/></g>
<g fill="#586072" transform="translate(472,144.1) scale(0.01200,-0.01200)"><use href="#mono_c" x="0"/><use href="#mono_h" x="600"/><use href="#mono_e" x="1200"/><use href="#mono_a" x="1800"/><use href="#mono_p" x="2400"/></g>
<rect x="618" y="90" width="156" height="64" rx="4" stroke="#4a3db0" stroke-width="1.5" fill="#4a3db0" fill-opacity="0.1"/>
<g fill="#4a3db0" transform="translate(678.3,109.6) scale(0.01400,-0.01400)"><use href="#title_s" x="0"/><use href="#title_e" x="449"/><use href="#title_l" x="954"/><use href="#title_e" x="1222"/><use href="#title_c" x="1727"/><use href="#title_t" x="2191"/></g>
<g fill="#586072" transform="translate(674.4,127.1) scale(0.01200,-0.01200)"><use href="#mono_q" x="0"/><use href="#mono_u" x="600"/><use href="#mono_o" x="1200"/><use href="#mono_t" x="1800"/><use href="#mono_a" x="2400"/><use href="#mono_s" x="3000"/></g>
<g fill="#586072" transform="translate(649.2,144.1) scale(0.01200,-0.01200)"><use href="#mono_f" x="0"/><use href="#mono_i" x="600"/><use href="#mono_l" x="1200"/><use href="#mono_l" x="1800"/><use href="#mono_t" x="3000"/><use href="#mono_h" x="3600"/><use href="#mono_e" x="4200"/><use href="#mono_g" x="5400"/><use href="#mono_a" x="6000"/><use href="#mono_p" x="6600"/><use href="#mono_s" x="7200"/></g>
<rect x="824" y="90" width="156" height="64" rx="4" stroke="#0b7a78" stroke-width="1.5" fill="#0b7a78" fill-opacity="0.1"/>
<g fill="#0b7a78" transform="translate(881.1,109.6) scale(0.01400,-0.01400)"><use href="#title_e" x="0"/><use href="#title_x" x="505"/><use href="#title_t" x="993"/><use href="#title_r" x="1327"/><use href="#title_a" x="1684"/><use href="#title_c" x="2191"/><use href="#title_t" x="2655"/></g>
<g fill="#586072" transform="translate(862.4,127.1) scale(0.01200,-0.01200)"><use href="#mono_s" x="0"/><use href="#mono_m" x="600"/><use href="#mono_a" x="1200"/><use href="#mono_r" x="1800"/><use href="#mono_t" x="2400"/><use href="#mono_m" x="3600"/><use href="#mono_o" x="4200"/><use href="#mono_d" x="4800"/><use href="#mono_e" x="5400"/><use href="#mono_l" x="6000"/></g>
<g fill="#586072" transform="translate(848,144.1) scale(0.01200,-0.01200)"><use href="#mono_one" x="0"/><use href="#mono_c" x="1200"/><use href="#mono_a" x="1800"/><use href="#mono_l" x="2400"/><use href="#mono_l" x="3000"/><use href="#mono_p" x="4200"/><use href="#mono_e" x="4800"/><use href="#mono_r" x="5400"/><use href="#mono_i" x="6600"/><use href="#mono_t" x="7200"/><use href="#mono_e" x="7800"/><use href="#mono_m" x="8400"/></g>
<rect x="206" y="230" width="156" height="64" rx="4" stroke="#9a6208" stroke-width="1.5" fill="#9a6208" fill-opacity="0.1"/>
<g fill="#9a6208" transform="translate(263.5,249.6) scale(0.01400,-0.01400)"><use href="#title_c" x="0"/><use href="#title_h" x="464"/><use href="#title_e" x="996"/><use href="#title_c" x="1501"/><use href="#title_k" x="1965"/><use href="#title_s" x="2476"/></g>
<g fill="#586072" transform="translate(248,267.1) scale(0.01200,-0.01200)"><use href="#mono_y" x="0"/><use href="#mono_o" x="600"/><use href="#mono_u" x="1200"/><use href="#mono_r" x="1800"/><use href="#mono_C" x="3000"/><use href="#mono_h" x="3600"/><use href="#mono_e" x="4200"/><use href="#mono_c" x="4800"/><use href="#mono_k" x="5400"/></g>
<g fill="#586072" transform="translate(266,284.1) scale(0.01200,-0.01200)"><use href="#mono_r" x="0"/><use href="#mono_u" x="600"/><use href="#mono_l" x="1200"/><use href="#mono_e" x="1800"/><use href="#mono_s" x="2400"/></g>
<rect x="412" y="230" width="156" height="64" rx="4" stroke="#0b7a78" stroke-width="1.5" fill="#0b7a78" fill-opacity="0.1"/>
<g fill="#0b7a78" transform="translate(467.3,249.6) scale(0.01400,-0.01400)"><use href="#title_c" x="0"/><use href="#title_o" x="464"/><use href="#title_n" x="970"/><use href="#title_f" x="1502"/><use href="#title_i" x="1830"/><use href="#title_r" x="2082"/><use href="#title_m" x="2439"/></g>
<g fill="#586072" transform="translate(446.8,267.1) scale(0.01200,-0.01200)"><use href="#mono_a" x="0"/><use href="#mono_s" x="600"/><use href="#mono_k" x="1200"/><use href="#mono_periodcentered" x="2400"/><use href="#mono_y" x="3600"/><use href="#mono_e" x="4200"/><use href="#mono_s" x="4800"/><use href="#mono_slash" x="5400"/><use href="#mono_n" x="6000"/><use href="#mono_o" x="6600"/></g>
<g fill="#586072" transform="translate(457.6,284.1) scale(0.01200,-0.01200)"><use href="#mono_p" x="0"/><use href="#mono_e" x="600"/><use href="#mono_r" x="1200"/><use href="#mono_c" x="2400"/><use href="#mono_l" x="3000"/><use href="#mono_a" x="3600"/><use href="#mono_i" x="4200"/><use href="#mono_m" x="4800"/></g>
<rect x="618" y="230" width="156" height="64" rx="4" stroke="#4a3db0" stroke-width="1.5" fill="#4a3db0" fill-opacity="0.1"/>
<g fill="#4a3db0" transform="translate(676.3,258.1) scale(0.01400,-0.01400)"><use href="#title_d" x="0"/><use href="#title_e" x="544"/><use href="#title_c" x="1049"/><use href="#title_i" x="1513"/><use href="#title_d" x="1765"/><use href="#title_e" x="2309"/></g>
<g fill="#586072" transform="translate(649.2,275.6) scale(0.01200,-0.01200)"><use href="#mono_s" x="0"/><use href="#mono_t" x="600"/><use href="#mono_a" x="1200"/><use href="#mono_t" x="1800"/><use href="#mono_u" x="2400"/><use href="#mono_s" x="3000"/><use href="#mono_p" x="4200"/><use href="#mono_o" x="4800"/><use href="#mono_l" x="5400"/><use href="#mono_i" x="6000"/><use href="#mono_c" x="6600"/><use href="#mono_y" x="7200"/></g>
<rect x="824" y="230" width="156" height="64" rx="4" stroke="#a3123f" stroke-width="1.5" fill="#a3123f" fill-opacity="0.1"/>
<g fill="#a3123f" transform="translate(883.4,249.6) scale(0.01400,-0.01400)"><use href="#title_f" x="0"/><use href="#title_r" x="328"/><use href="#title_e" x="685"/><use href="#title_e" x="1190"/><use href="#title_z" x="1695"/><use href="#title_e" x="2147"/></g>
<g fill="#586072" transform="translate(866,267.1) scale(0.01200,-0.01200)"><use href="#mono_r" x="0"/><use href="#mono_e" x="600"/><use href="#mono_l" x="1200"/><use href="#mono_e" x="1800"/><use href="#mono_a" x="2400"/><use href="#mono_s" x="3000"/><use href="#mono_e" x="3600"/><use href="#mono_v" x="4800"/><use href="#mono_N" x="5400"/></g>
<g fill="#586072" transform="translate(848,284.1) scale(0.01200,-0.01200)"><use href="#mono_h" x="0"/><use href="#mono_a" x="600"/><use href="#mono_s" x="1200"/><use href="#mono_h" x="1800"/><use href="#mono_e" x="2400"/><use href="#mono_d" x="3000"/><use href="#mono_m" x="4200"/><use href="#mono_a" x="4800"/><use href="#mono_n" x="5400"/><use href="#mono_i" x="6000"/><use href="#mono_f" x="6600"/><use href="#mono_e" x="7200"/><use href="#mono_s" x="7800"/><use href="#mono_t" x="8400"/></g>
<rect x="618" y="336" width="156" height="56" rx="4" stroke="#161a24" stroke-width="1.2" fill="none" stroke-dasharray="5 4"/>
<g fill="#161a24" transform="translate(676.2,360.1) scale(0.01400,-0.01400)"><use href="#title_r" x="0"/><use href="#title_e" x="357"/><use href="#title_v" x="862"/><use href="#title_i" x="1338"/><use href="#title_e" x="1590"/><use href="#title_w" x="2095"/></g>
<g fill="#586072" transform="translate(649.2,377.6) scale(0.01200,-0.01200)"><use href="#mono_a" x="0"/><use href="#mono_g" x="600"/><use href="#mono_e" x="1200"/><use href="#mono_n" x="1800"/><use href="#mono_t" x="2400"/><use href="#mono_periodcentered" x="3600"/><use href="#mono_h" x="4800"/><use href="#mono_u" x="5400"/><use href="#mono_m" x="6000"/><use href="#mono_a" x="6600"/><use href="#mono_n" x="7200"/></g>
<rect x="412" y="336" width="156" height="56" rx="4" stroke="#0b7a78" stroke-width="1.5" fill="#0b7a78" fill-opacity="0.1" stroke-dasharray="5 4"/>
<g fill="#0b7a78" transform="translate(458.8,360.1) scale(0.01400,-0.01400)"><use href="#title_f" x="0"/><use href="#title_a" x="328"/><use href="#title_s" x="835"/><use href="#title_t" x="1284"/><use href="#title_m" x="1830"/><use href="#title_o" x="2632"/><use href="#title_d" x="3138"/><use href="#title_e" x="3682"/><use href="#title_l" x="4187"/></g>
<g fill="#586072" transform="translate(457.6,377.6) scale(0.01200,-0.01200)"><use href="#mono_J" x="0"/><use href="#mono_e" x="600"/><use href="#mono_v" x="1200"/><use href="#mono_periodcentered" x="2400"/><use href="#mono_C" x="3600"/><use href="#mono_L" x="4200"/><use href="#mono_M" x="4800"/></g>
<path d="M156,122 L203,122" fill="none" stroke="#161a24" stroke-width="1.5" marker-end="url(#ah-ink)"/>
<path d="M362,122 L409,122" fill="none" stroke="#9a6208" stroke-width="1.5" marker-end="url(#ah-code)"/>
<path d="M568,122 L615,122" fill="none" stroke="#0b7a78" stroke-width="1.5" marker-end="url(#ah-model)"/>
<path d="M774,122 L821,122" fill="none" stroke="#4a3db0" stroke-width="1.5" marker-end="url(#ah-logic)"/>
<path d="M902,154 L902,196 L284,196 L284,227" fill="none" stroke="#0b7a78" stroke-width="1.5" marker-end="url(#ah-model)"/>
<g fill="#0b7a78" transform="translate(442,188) scale(0.01300,-0.01300)"><use href="#mono_s" x="0"/><use href="#mono_t" x="600"/><use href="#mono_r" x="1200"/><use href="#mono_u" x="1800"/><use href="#mono_c" x="2400"/><use href="#mono_t" x="3000"/><use href="#mono_u" x="3600"/><use href="#mono_r" x="4200"/><use href="#mono_e" x="4800"/><use href="#mono_d" x="5400"/><use href="#mono_a" x="6600"/><use href="#mono_n" x="7200"/><use href="#mono_s" x="7800"/><use href="#mono_w" x="8400"/><use href="#mono_e" x="9000"/><use href="#mono_r" x="9600"/></g>
<path d="M362,262 L409,262" fill="none" stroke="#9a6208" stroke-width="1.5" marker-end="url(#ah-code)"/>
<path d="M568,262 L615,262" fill="none" stroke="#0b7a78" stroke-width="1.5" marker-end="url(#ah-model)"/>
<path d="M774,262 L821,262" fill="none" stroke="#4a3db0" stroke-width="2.4" marker-end="url(#ah-logic)"/>
<path d="M670,294 L670,333" fill="none" stroke="#4a3db0" stroke-width="1.5" stroke-dasharray="5 4" marker-end="url(#ah-logic)"/>
<path d="M722,336 L722,297" fill="none" stroke="#161a24" stroke-width="1.5" stroke-dasharray="5 4" marker-end="url(#ah-ink)"/>
<g fill="#586072" transform="translate(730,316) scale(0.01300,-0.01300)"><use href="#mono_n" x="0"/><use href="#mono_e" x="600"/><use href="#mono_w" x="1200"/><use href="#mono_l" x="2400"/><use href="#mono_a" x="3000"/><use href="#mono_b" x="3600"/><use href="#mono_e" x="4200"/><use href="#mono_l" x="4800"/></g>
<path d="M490,336 L490,297" fill="none" stroke="#0b7a78" stroke-width="1.5" stroke-dasharray="5 4" marker-end="url(#ah-model)"/>
<g fill="#586072" transform="translate(0,258) scale(0.01200,-0.01200)"><use href="#mono_e" x="0"/><use href="#mono_a" x="600"/><use href="#mono_c" x="1200"/><use href="#mono_h" x="1800"/><use href="#mono_s" x="3000"/><use href="#mono_t" x="3600"/><use href="#mono_a" x="4200"/><use href="#mono_g" x="4800"/><use href="#mono_e" x="5400"/><use href="#mono_l" x="6600"/><use href="#mono_o" x="7200"/><use href="#mono_g" x="7800"/><use href="#mono_s" x="8400"/></g>
<g fill="#586072" transform="translate(0,276) scale(0.01200,-0.01200)"><use href="#mono_i" x="0"/><use href="#mono_n" x="600"/><use href="#mono_periodcentered" x="1800"/><use href="#mono_o" x="3000"/><use href="#mono_u" x="3600"/><use href="#mono_t" x="4200"/><use href="#mono_periodcentered" x="5400"/><use href="#mono_d" x="6600"/><use href="#mono_r" x="7200"/><use href="#mono_o" x="7800"/><use href="#mono_p" x="8400"/><use href="#mono_p" x="9000"/><use href="#mono_e" x="9600"/><use href="#mono_d" x="10200"/></g>
<rect x="0" y="410" width="11" height="11" rx="2" stroke="#9a6208" stroke-width="1.2" fill="#9a6208" fill-opacity="0.1"/>
<g fill="#586072" transform="translate(17,420) scale(0.01200,-0.01200)"><use href="#mono_y" x="0"/><use href="#mono_o" x="600"/><use href="#mono_u" x="1200"/><use href="#mono_r" x="1800"/><use href="#mono_c" x="3000"/><use href="#mono_o" x="3600"/><use href="#mono_d" x="4200"/><use href="#mono_e" x="4800"/></g>
<rect x="105.8" y="410" width="11" height="11" rx="2" stroke="#0b7a78" stroke-width="1.2" fill="#0b7a78" fill-opacity="0.1"/>
<g fill="#586072" transform="translate(122.8,420) scale(0.01200,-0.01200)"><use href="#mono_m" x="0"/><use href="#mono_o" x="600"/><use href="#mono_d" x="1200"/><use href="#mono_e" x="1800"/><use href="#mono_l" x="2400"/><use href="#mono_c" x="3600"/><use href="#mono_a" x="4200"/><use href="#mono_l" x="4800"/><use href="#mono_l" x="5400"/></g>
<rect x="218.8" y="410" width="11" height="11" rx="2" stroke="#4a3db0" stroke-width="1.2" fill="#4a3db0" fill-opacity="0.1"/>
<g fill="#586072" transform="translate(235.8,420) scale(0.01200,-0.01200)"><use href="#mono_y" x="0"/><use href="#mono_o" x="600"/><use href="#mono_u" x="1200"/><use href="#mono_r" x="1800"/><use href="#mono_r" x="3000"/><use href="#mono_u" x="3600"/><use href="#mono_l" x="4200"/><use href="#mono_e" x="4800"/></g>
<rect x="324.6" y="410" width="11" height="11" rx="2" stroke="#a3123f" stroke-width="1.2" fill="#a3123f" fill-opacity="0.1"/>
<g fill="#586072" transform="translate(341.6,420) scale(0.01200,-0.01200)"><use href="#mono_d" x="0"/><use href="#mono_a" x="600"/><use href="#mono_t" x="1200"/><use href="#mono_a" x="1800"/></g>
<rect x="394.4" y="410" width="11" height="11" rx="2" stroke="#161a24" stroke-width="1.2" fill="#161a24" fill-opacity="0.1"/>
<g fill="#586072" transform="translate(411.4,420) scale(0.01200,-0.01200)"><use href="#mono_i" x="0"/><use href="#mono_n" x="600"/><use href="#mono_p" x="1200"/><use href="#mono_u" x="1800"/><use href="#mono_t" x="2400"/><use href="#mono_slash" x="3600"/><use href="#mono_p" x="4800"/><use href="#mono_e" x="5400"/><use href="#mono_r" x="6000"/><use href="#mono_s" x="6600"/><use href="#mono_o" x="7200"/><use href="#mono_n" x="7800"/></g>
<path d="M536.2,416 L558.2,416" fill="none" stroke="#0b7a78" stroke-width="1.5" stroke-dasharray="5 4"/>
<g fill="#586072" transform="translate(564.2,420) scale(0.01200,-0.01200)"><use href="#mono_l" x="0"/><use href="#mono_a" x="600"/><use href="#mono_t" x="1200"/><use href="#mono_e" x="1800"/><use href="#mono_r" x="2400"/><use href="#mono_slash" x="3600"/><use href="#mono_w" x="4800"/><use href="#mono_h" x="5400"/><use href="#mono_e" x="6000"/><use href="#mono_n" x="6600"/><use href="#mono_n" x="7800"/><use href="#mono_e" x="8400"/><use href="#mono_e" x="9000"/><use href="#mono_d" x="9600"/><use href="#mono_e" x="10200"/><use href="#mono_d" x="10800"/></g>
</svg>
