<?xml version="1.0" encoding="utf-8" standalone="no"?>
<!DOCTYPE svg PUBLIC "-//W3C//DTD SVG 1.1//EN"
  "http://www.w3.org/Graphics/SVG/1.1/DTD/svg11.dtd">
<svg xmlns:xlink="http://www.w3.org/1999/xlink" width="828pt" height="482.4pt" viewBox="0 0 828 482.4" xmlns="http://www.w3.org/2000/svg" version="1.1">
 <metadata>
  <rdf:RDF xmlns:dc="http://purl.org/dc/elements/1.1/" xmlns:cc="http://creativecommons.org/ns#" xmlns:rdf="http://www.w3.org/1999/02/22-rdf-syntax-ns#">
   <cc:Work>
    <dc:type rdf:resource="http://purl.org/dc/dcmitype/StillImage"/>
    <dc:format>image/svg+xml</dc:format>
    <dc:creator>
     <cc:Agent>
      <dc:title>Sapho documentation renderer</dc:title>
     </cc:Agent>
    </dc:creator>
    <dc:rights>
     <cc:Agent>
      <dc:title>SPDX-License-Identifier: AGPL-3.0-or-later</dc:title>
     </cc:Agent>
    </dc:rights>
   </cc:Work>
  </rdf:RDF>
 </metadata>
 <defs>
  <style type="text/css">*{stroke-linejoin: round; stroke-linecap: butt}</style>
 </defs>
 <g id="figure_1">
  <g id="patch_1">
   <path d="M 0 482.4
L 828 482.4
L 828 0
L 0 0
L 0 482.4
z
" style="fill: none; opacity: 0"/>
  </g>
  <g id="axes_1">
   <g id="patch_2">
    <path d="M 228.494097 272.133248
Q 249.246072 227.177353 291.354708 205.680339
" clip-path="url(#p53a36e0bc4)" style="fill: none; stroke: #fff4d9; stroke-width: 4.5; stroke-linecap: round"/>
    <path d="M 228.494097 272.133248
Q 249.246072 227.177353 291.354708 205.680339
" clip-path="url(#p53a36e0bc4)" style="fill: none; stroke: #24363e; stroke-width: 2; stroke-linecap: round"/>
    <path d="M 283.305146 205.747757
L 291.354708 205.680339
L 286.578905 212.16044
L 283.305146 205.747757
z
" clip-path="url(#p53a36e0bc4)" style="fill: #24363e; stroke: #fff4d9; stroke-width: 4.5; stroke-linecap: round"/>
    <path d="M 283.305146 205.747757
L 291.354708 205.680339
L 286.578905 212.16044
L 283.305146 205.747757
z
" clip-path="url(#p53a36e0bc4)" style="fill: #24363e; stroke: #24363e; stroke-width: 2; stroke-linecap: round"/>
    <g id="patch_3">
     <path d="M 228.556194 275.74564
Q 250.070812 318.375756 291.289761 337.679548
" clip-path="url(#p53a36e0bc4)" style="fill: none; stroke: #fff4d9; stroke-width: 4.5; stroke-linecap: round"/>
     <path d="M 228.556194 275.74564
Q 250.070812 318.375756 291.289761 337.679548
" clip-path="url(#p53a36e0bc4)" style="fill: none; stroke: #24363e; stroke-width: 2; stroke-linecap: round"/>
     <path d="M 286.296209 331.365719
L 291.289761 337.679548
L 283.242567 337.886092
L 286.296209 331.365719
z
" clip-path="url(#p53a36e0bc4)" style="fill: #24363e; stroke: #fff4d9; stroke-width: 4.5; stroke-linecap: round"/>
     <path d="M 286.296209 331.365719
L 291.289761 337.679548
L 283.242567 337.886092
L 286.296209 331.365719
z
" clip-path="url(#p53a36e0bc4)" style="fill: #24363e; stroke: #24363e; stroke-width: 2; stroke-linecap: round"/>
     <g id="patch_4">
      <path d="M 229.667416 273.961016
Q 431.566301 274.532647 630.648369 259.304499
" clip-path="url(#p53a36e0bc4)" style="fill: none; stroke: #fff4d9; stroke-width: 4.5; stroke-linecap: round"/>
      <path d="M 229.667416 273.961016
Q 431.566301 274.532647 630.648369 259.304499
" clip-path="url(#p53a36e0bc4)" style="fill: none; stroke: #24363e; stroke-width: 2; stroke-linecap: round"/>
      <path d="M 623.194772 256.264122
L 630.648369 259.304499
L 623.743909 263.44315
L 623.194772 256.264122
z
" clip-path="url(#p53a36e0bc4)" style="fill: #24363e; stroke: #fff4d9; stroke-width: 4.5; stroke-linecap: round"/>
      <path d="M 623.194772 256.264122
L 630.648369 259.304499
L 623.743909 263.44315
L 623.194772 256.264122
z
" clip-path="url(#p53a36e0bc4)" style="fill: #24363e; stroke: #24363e; stroke-width: 2; stroke-linecap: round"/>
      <g id="patch_5">
       <path d="M 687.0744 260.983096
Q 687.0744 271.615093 687.0744 280.011022
" clip-path="url(#p53a36e0bc4)" style="fill: none; stroke: #fff4d9; stroke-width: 4.5; stroke-linecap: round"/>
       <path d="M 687.0744 260.983096
Q 687.0744 271.615093 687.0744 280.011022
" clip-path="url(#p53a36e0bc4)" style="fill: none; stroke: #24363e; stroke-width: 2; stroke-linecap: round"/>
       <path d="M 690.6744 272.811022
L 687.0744 280.011022
L 683.4744 272.811022
L 690.6744 272.811022
z
" clip-path="url(#p53a36e0bc4)" style="fill: #24363e; stroke: #fff4d9; stroke-width: 4.5; stroke-linecap: round"/>
       <path d="M 690.6744 272.811022
L 687.0744 280.011022
L 683.4744 272.811022
L 690.6744 272.811022
z
" clip-path="url(#p53a36e0bc4)" style="fill: #24363e; stroke: #24363e; stroke-width: 2; stroke-linecap: round"/>
       <g id="patch_6">
        <path d="M 54.5859 77.659164
L 780.64254 77.659164
Q 798.31206 77.659164 798.31206 67.364748
L 798.31206 37.417356
Q 798.31206 27.12294 780.64254 27.12294
L 54.5859 27.12294
Q 36.91638 27.12294 36.91638 37.417356
L 36.91638 67.364748
Q 36.91638 77.659164 54.5859 77.659164
z
" clip-path="url(#p53a36e0bc4)" style="fill: #24363e; opacity: 0.16"/>
       </g>
       <g id="patch_7">
        <path d="M 94.7439 126.791604
L 740.48454 126.791604
Q 758.15406 126.791604 758.15406 116.497188
L 758.15406 100.587636
Q 758.15406 90.29322 740.48454 90.29322
L 94.7439 90.29322
Q 77.07438 90.29322 77.07438 100.587636
L 77.07438 116.497188
Q 77.07438 126.791604 94.7439 126.791604
z
" clip-path="url(#p53a36e0bc4)" style="fill: #24363e; opacity: 0.16"/>
       </g>
       <g id="patch_8">
        <path d="M 54.5859 353.736684
L 210.39894 353.736684
Q 228.06846 353.736684 228.06846 343.442268
L 228.06846 210.550716
Q 228.06846 200.2563 210.39894 200.2563
L 54.5859 200.2563
Q 36.91638 200.2563 36.91638 210.550716
L 36.91638 343.442268
Q 36.91638 353.736684 54.5859 353.736684
z
" clip-path="url(#p53a36e0bc4)" style="fill: #24363e; opacity: 0.16"/>
       </g>
       <g id="patch_9">
        <path d="M 319.6287 260.151084
L 491.50494 260.151084
Q 509.17446 260.151084 509.17446 249.856668
L 509.17446 163.757916
Q 509.17446 153.4635 491.50494 153.4635
L 319.6287 153.4635
Q 301.95918 153.4635 301.95918 163.757916
L 301.95918 249.856668
Q 301.95918 260.151084 319.6287 260.151084
z
" clip-path="url(#p53a36e0bc4)" style="fill: #24363e; opacity: 0.16"/>
       </g>
       <g id="patch_10">
        <path d="M 319.6287 395.850204
L 491.50494 395.850204
Q 509.17446 395.850204 509.17446 385.555788
L 509.17446 299.457036
Q 509.17446 289.16262 491.50494 289.16262
L 319.6287 289.16262
Q 301.95918 289.16262 301.95918 299.457036
L 301.95918 385.555788
Q 301.95918 395.850204 319.6287 395.850204
z
" clip-path="url(#p53a36e0bc4)" style="fill: #24363e; opacity: 0.16"/>
       </g>
       <g id="patch_11">
        <path d="M 600.7347 260.151084
L 780.64254 260.151084
Q 798.31206 260.151084 798.31206 249.856668
L 798.31206 163.757916
Q 798.31206 153.4635 780.64254 153.4635
L 600.7347 153.4635
Q 583.06518 153.4635 583.06518 163.757916
L 583.06518 249.856668
Q 583.06518 260.151084 600.7347 260.151084
z
" clip-path="url(#p53a36e0bc4)" style="fill: #24363e; opacity: 0.16"/>
       </g>
       <g id="patch_12">
        <path d="M 600.7347 395.850204
L 780.64254 395.850204
Q 798.31206 395.850204 798.31206 385.555788
L 798.31206 299.457036
Q 798.31206 289.16262 780.64254 289.16262
L 600.7347 289.16262
Q 583.06518 289.16262 583.06518 299.457036
L 583.06518 385.555788
Q 583.06518 395.850204 600.7347 395.850204
z
" clip-path="url(#p53a36e0bc4)" style="fill: #24363e; opacity: 0.16"/>
       </g>
       <g id="patch_13">
        <path d="M 86.7123 470.718684
L 748.51614 470.718684
Q 766.18566 470.718684 766.18566 460.424268
L 766.18566 435.156156
Q 766.18566 424.86174 748.51614 424.86174
L 86.7123 424.86174
Q 69.04278 424.86174 69.04278 435.156156
L 69.04278 460.424268
Q 69.04278 470.718684 86.7123 470.718684
z
" clip-path="url(#p53a36e0bc4)" style="fill: #24363e; opacity: 0.16"/>
       </g>
       <g id="patch_14">
        <path d="M 54.18432 72.74592
C 247.906512 73.58819 580.093488 71.90365 773.81568 72.74592
Q 791.4852 72.74592 791.4852 62.451504
C 792.609624 58.70808 790.360776 39.99096 791.4852 36.247536
Q 791.4852 25.95312 773.81568 25.95312
C 580.093488 25.017264 247.906512 26.888976 54.18432 25.95312
Q 36.5148 25.95312 36.5148 36.247536
C 35.390376 39.99096 37.639224 58.70808 36.5148 62.451504
Q 36.5148 72.74592 54.18432 72.74592
z
" clip-path="url(#p53a36e0bc4)" style="fill: #fff4d9; stroke: #fff4d9; stroke-width: 4.2; stroke-linejoin: miter"/>
        <path d="M 54.18432 72.74592
C 247.906512 73.58819 580.093488 71.90365 773.81568 72.74592
Q 791.4852 72.74592 791.4852 62.451504
C 792.609624 58.70808 790.360776 39.99096 791.4852 36.247536
Q 791.4852 25.95312 773.81568 25.95312
C 580.093488 25.017264 247.906512 26.888976 54.18432 25.95312
Q 36.5148 25.95312 36.5148 36.247536
C 35.390376 39.99096 37.639224 58.70808 36.5148 62.451504
Q 36.5148 72.74592 54.18432 72.74592
z
" clip-path="url(#p53a36e0bc4)" style="fill: #fff4d9; stroke: #24363e; stroke-width: 2; stroke-linejoin: miter"/>
        <g id="patch_15">
         <path d="M 94.34232 121.87836
C 265.576032 122.72063 562.423968 121.03609 733.65768 121.87836
Q 751.3272 121.87836 751.3272 111.583944
C 752.451624 112.051872 750.202776 98.949888 751.3272 99.417816
Q 751.3272 89.1234 733.65768 89.1234
C 562.423968 88.187544 265.576032 90.059256 94.34232 89.1234
Q 76.6728 89.1234 76.6728 99.417816
C 75.548376 98.949888 77.797224 112.051872 76.6728 111.583944
Q 76.6728 121.87836 94.34232 121.87836
z
" clip-path="url(#p53a36e0bc4)" style="fill: #d3efdf; stroke: #fff4d9; stroke-width: 4.2; stroke-linejoin: miter"/>
         <path d="M 94.34232 121.87836
C 265.576032 122.72063 562.423968 121.03609 733.65768 121.87836
Q 751.3272 121.87836 751.3272 111.583944
C 752.451624 112.051872 750.202776 98.949888 751.3272 99.417816
Q 751.3272 89.1234 733.65768 89.1234
C 562.423968 88.187544 265.576032 90.059256 94.34232 89.1234
Q 76.6728 89.1234 76.6728 99.417816
C 75.548376 98.949888 77.797224 112.051872 76.6728 111.583944
Q 76.6728 121.87836 94.34232 121.87836
z
" clip-path="url(#p53a36e0bc4)" style="fill: #d3efdf; stroke: #24363e; stroke-width: 2; stroke-linejoin: miter"/>
         <g id="patch_16">
          <path d="M 54.18432 348.82344
C 88.238304 349.66571 169.518096 347.98117 203.57208 348.82344
Q 221.2416 348.82344 221.2416 338.529024
C 222.366024 303.902352 220.117176 244.007568 221.2416 209.380896
Q 221.2416 199.08648 203.57208 199.08648
C 169.518096 198.150624 88.238304 200.022336 54.18432 199.08648
Q 36.5148 199.08648 36.5148 209.380896
C 35.390376 244.007568 37.639224 303.902352 36.5148 338.529024
Q 36.5148 348.82344 54.18432 348.82344
z
" clip-path="url(#p53a36e0bc4)" style="fill: #dce9fc; stroke: #fff4d9; stroke-width: 4.2; stroke-linejoin: miter"/>
          <path d="M 54.18432 348.82344
C 88.238304 349.66571 169.518096 347.98117 203.57208 348.82344
Q 221.2416 348.82344 221.2416 338.529024
C 222.366024 303.902352 220.117176 244.007568 221.2416 209.380896
Q 221.2416 199.08648 203.57208 199.08648
C 169.518096 198.150624 88.238304 200.022336 54.18432 199.08648
Q 36.5148 199.08648 36.5148 209.380896
C 35.390376 244.007568 37.639224 303.902352 36.5148 338.529024
Q 36.5148 348.82344 54.18432 348.82344
z
" clip-path="url(#p53a36e0bc4)" style="fill: #dce9fc; stroke: #24363e; stroke-width: 2; stroke-linejoin: miter"/>
          <g id="patch_17">
           <path d="M 319.22712 255.23784
C 357.7788 256.08011 446.1264 254.39557 484.67808 255.23784
Q 502.3476 255.23784 502.3476 244.943424
C 503.472024 224.354592 501.223176 183.176928 502.3476 162.588096
Q 502.3476 152.29368 484.67808 152.29368
C 446.1264 151.357824 357.7788 153.229536 319.22712 152.29368
Q 301.5576 152.29368 301.5576 162.588096
C 300.433176 183.176928 302.682024 224.354592 301.5576 244.943424
Q 301.5576 255.23784 319.22712 255.23784
z
" clip-path="url(#p53a36e0bc4)" style="fill: #ffe1cc; stroke: #fff4d9; stroke-width: 4.2; stroke-linejoin: miter"/>
           <path d="M 319.22712 255.23784
C 357.7788 256.08011 446.1264 254.39557 484.67808 255.23784
Q 502.3476 255.23784 502.3476 244.943424
C 503.472024 224.354592 501.223176 183.176928 502.3476 162.588096
Q 502.3476 152.29368 484.67808 152.29368
C 446.1264 151.357824 357.7788 153.229536 319.22712 152.29368
Q 301.5576 152.29368 301.5576 162.588096
C 300.433176 183.176928 302.682024 224.354592 301.5576 244.943424
Q 301.5576 255.23784 319.22712 255.23784
z
" clip-path="url(#p53a36e0bc4)" style="fill: #ffe1cc; stroke: #24363e; stroke-width: 2; stroke-linejoin: miter"/>
           <g id="patch_18">
            <path d="M 319.22712 390.93696
C 357.7788 391.77923 446.1264 390.09469 484.67808 390.93696
Q 502.3476 390.93696 502.3476 380.642544
C 503.472024 360.053712 501.223176 318.876048 502.3476 298.287216
Q 502.3476 287.9928 484.67808 287.9928
C 446.1264 287.056944 357.7788 288.928656 319.22712 287.9928
Q 301.5576 287.9928 301.5576 298.287216
C 300.433176 318.876048 302.682024 360.053712 301.5576 380.642544
Q 301.5576 390.93696 319.22712 390.93696
z
" clip-path="url(#p53a36e0bc4)" style="fill: #d3efdf; stroke: #fff4d9; stroke-width: 4.2; stroke-linejoin: miter"/>
            <path d="M 319.22712 390.93696
C 357.7788 391.77923 446.1264 390.09469 484.67808 390.93696
Q 502.3476 390.93696 502.3476 380.642544
C 503.472024 360.053712 501.223176 318.876048 502.3476 298.287216
Q 502.3476 287.9928 484.67808 287.9928
C 446.1264 287.056944 357.7788 288.928656 319.22712 287.9928
Q 301.5576 287.9928 301.5576 298.287216
C 300.433176 318.876048 302.682024 360.053712 301.5576 380.642544
Q 301.5576 390.93696 319.22712 390.93696
z
" clip-path="url(#p53a36e0bc4)" style="fill: #d3efdf; stroke: #24363e; stroke-width: 2; stroke-linejoin: miter"/>
            <g id="patch_19">
             <path d="M 600.33312 255.23784
C 641.133648 256.08011 733.015152 254.39557 773.81568 255.23784
Q 791.4852 255.23784 791.4852 244.943424
C 792.609624 224.354592 790.360776 183.176928 791.4852 162.588096
Q 791.4852 152.29368 773.81568 152.29368
C 733.015152 151.357824 641.133648 153.229536 600.33312 152.29368
Q 582.6636 152.29368 582.6636 162.588096
C 581.539176 183.176928 583.788024 224.354592 582.6636 244.943424
Q 582.6636 255.23784 600.33312 255.23784
z
" clip-path="url(#p53a36e0bc4)" style="fill: #f7dced; stroke: #fff4d9; stroke-width: 4.2; stroke-linejoin: miter"/>
             <path d="M 600.33312 255.23784
C 641.133648 256.08011 733.015152 254.39557 773.81568 255.23784
Q 791.4852 255.23784 791.4852 244.943424
C 792.609624 224.354592 790.360776 183.176928 791.4852 162.588096
Q 791.4852 152.29368 773.81568 152.29368
C 733.015152 151.357824 641.133648 153.229536 600.33312 152.29368
Q 582.6636 152.29368 582.6636 162.588096
C 581.539176 183.176928 583.788024 224.354592 582.6636 244.943424
Q 582.6636 255.23784 600.33312 255.23784
z
" clip-path="url(#p53a36e0bc4)" style="fill: #f7dced; stroke: #24363e; stroke-width: 2; stroke-linejoin: miter"/>
             <g id="patch_20">
              <path d="M 600.33312 390.93696
C 641.133648 391.77923 733.015152 390.09469 773.81568 390.93696
Q 791.4852 390.93696 791.4852 380.642544
C 792.609624 360.053712 790.360776 318.876048 791.4852 298.287216
Q 791.4852 287.9928 773.81568 287.9928
C 733.015152 287.056944 641.133648 288.928656 600.33312 287.9928
Q 582.6636 287.9928 582.6636 298.287216
C 581.539176 318.876048 583.788024 360.053712 582.6636 380.642544
Q 582.6636 390.93696 600.33312 390.93696
z
" clip-path="url(#p53a36e0bc4)" style="fill: #fff4d9; stroke: #fff4d9; stroke-width: 4.2; stroke-linejoin: miter"/>
              <path d="M 600.33312 390.93696
C 641.133648 391.77923 733.015152 390.09469 773.81568 390.93696
Q 791.4852 390.93696 791.4852 380.642544
C 792.609624 360.053712 790.360776 318.876048 791.4852 298.287216
Q 791.4852 287.9928 773.81568 287.9928
C 733.015152 287.056944 641.133648 288.928656 600.33312 287.9928
Q 582.6636 287.9928 582.6636 298.287216
C 581.539176 318.876048 583.788024 360.053712 582.6636 380.642544
Q 582.6636 390.93696 600.33312 390.93696
z
" clip-path="url(#p53a36e0bc4)" style="fill: #fff4d9; stroke: #24363e; stroke-width: 2; stroke-linejoin: miter"/>
              <g id="patch_21">
               <path d="M 86.31072 465.80544
C 262.042128 466.64771 565.957872 464.96317 741.68928 465.80544
Q 759.3588 465.80544 759.3588 455.511024
C 760.483224 453.171384 758.234376 436.325976 759.3588 433.986336
Q 759.3588 423.69192 741.68928 423.69192
C 565.957872 422.756064 262.042128 424.627776 86.31072 423.69192
Q 68.6412 423.69192 68.6412 433.986336
C 67.516776 436.325976 69.765624 453.171384 68.6412 455.511024
Q 68.6412 465.80544 86.31072 465.80544
z
" clip-path="url(#p53a36e0bc4)" style="fill: #fff4d9; stroke: #fff4d9; stroke-width: 4.2; stroke-linejoin: miter"/>
               <path d="M 86.31072 465.80544
C 262.042128 466.64771 565.957872 464.96317 741.68928 465.80544
Q 759.3588 465.80544 759.3588 455.511024
C 760.483224 453.171384 758.234376 436.325976 759.3588 433.986336
Q 759.3588 423.69192 741.68928 423.69192
C 565.957872 422.756064 262.042128 424.627776 86.31072 423.69192
Q 68.6412 423.69192 68.6412 433.986336
C 67.516776 436.325976 69.765624 453.171384 68.6412 455.511024
Q 68.6412 465.80544 86.31072 465.80544
z
" clip-path="url(#p53a36e0bc4)" style="fill: #fff4d9; stroke: #24363e; stroke-width: 2; stroke-linejoin: miter"/>
               <g id="text_1">
                <text style="fill: #24363e; font: 700 21px 'Lato'; text-anchor: middle" x="414" y="55.391942" transform="rotate(-0, 414, 55.391942)">Same evidence. Different policies.</text>
               </g>
               <g id="text_2">
                <text style="fill: #24363e; font: 11.8px 'Lato'; text-anchor: middle" x="414" y="108.769849" transform="rotate(-0, 414, 108.769849)">Strengths 0.8, 0.4, 0.6 · weights 2 : 1 : 1 for the mean</text>
               </g>
               <g id="patch_22">
                <path d="M 112.815 233.33881
L 144.9414 233.33881
L 144.9414 218.365114
L 134.50032 212.749978
L 112.815 212.749978
z
" clip-path="url(#p53a36e0bc4)" style="fill: #fff4d9; stroke: #24363e; stroke-width: 1.6; stroke-linejoin: miter"/>
               </g>
               <g id="line2d_1">
                <path d="M 119.24028 227.723674
L 134.50032 227.723674
" clip-path="url(#p53a36e0bc4)" style="fill: none; stroke: #24363e; stroke-width: 1.7; stroke-linecap: round"/>
               </g>
               <g id="line2d_2">
                <path d="M 119.24028 223.044394
L 134.50032 223.044394
" clip-path="url(#p53a36e0bc4)" style="fill: none; stroke: #24363e; stroke-width: 1.7; stroke-linecap: round"/>
               </g>
               <g id="line2d_3">
                <path d="M 119.24028 218.365114
L 134.50032 218.365114
" clip-path="url(#p53a36e0bc4)" style="fill: none; stroke: #24363e; stroke-width: 1.7; stroke-linecap: round"/>
               </g>
               <g id="text_3">
                <text style="fill: #24363e; font: 700 15px 'Lato'; text-anchor: middle" x="128.8782" y="261.79991" transform="rotate(-0, 128.8782, 261.79991)">Evidence</text>
               </g>
               <g id="text_4">
                <text style="fill: #24363e; font: 11.2px 'Lato'" transform="translate(111.344075 301.494875)">A = 0.8</text>
                <text style="fill: #24363e; font: 11.2px 'Lato'" transform="translate(111.3257 314.5532)">B = 0.4</text>
                <text style="fill: #24363e; font: 11.2px 'Lato'" transform="translate(111.205825 327.611525)">C = 0.6</text>
               </g>
               <g id="line2d_4">
                <path d="M 381.8736 161.745826
L 401.9526 168.764746
L 422.0316 161.745826
" clip-path="url(#p53a36e0bc4)" style="fill: none; stroke: #24363e; stroke-width: 1.7; stroke-linecap: round"/>
               </g>
               <g id="line2d_5">
                <path d="M 401.9526 168.764746
L 401.9526 178.123306
" clip-path="url(#p53a36e0bc4)" style="fill: none; stroke: #24363e; stroke-width: 1.7; stroke-linecap: round"/>
               </g>
               <g id="text_5">
                <text style="fill: #24363e; font: 700 13.5px 'Lato'; text-anchor: middle" x="401.9526" y="196.326316" transform="rotate(-0, 401.9526, 196.326316)">Minimum → 0.40</text>
               </g>
               <g id="text_6">
                <text style="fill: #24363e; font: 11.2px 'Lato'; text-anchor: middle" x="401.9526" y="232.6658" transform="rotate(-0, 401.9526, 232.6658)">Use the weakest part</text>
               </g>
               <g id="line2d_6">
                <path d="M 381.8736 297.444946
L 401.9526 304.463866
L 422.0316 297.444946
" clip-path="url(#p53a36e0bc4)" style="fill: none; stroke: #24363e; stroke-width: 1.7; stroke-linecap: round"/>
               </g>
               <g id="line2d_7">
                <path d="M 401.9526 304.463866
L 401.9526 313.822426
" clip-path="url(#p53a36e0bc4)" style="fill: none; stroke: #24363e; stroke-width: 1.7; stroke-linecap: round"/>
               </g>
               <g id="text_7">
                <text style="fill: #24363e; font: 700 13.5px 'Lato'; text-anchor: middle" x="401.9526" y="332.025436" transform="rotate(-0, 401.9526, 332.025436)">Maximum → 0.80</text>
               </g>
               <g id="text_8">
                <text style="fill: #24363e; font: 11.2px 'Lato'; text-anchor: middle" x="401.9526" y="368.30367" transform="rotate(-0, 401.9526, 368.30367)">Use the strongest part</text>
               </g>
               <g id="line2d_8">
                <path d="M 666.9954 161.745826
L 687.0744 168.764746
L 707.1534 161.745826
" clip-path="url(#p53a36e0bc4)" style="fill: none; stroke: #24363e; stroke-width: 1.7; stroke-linecap: round"/>
               </g>
               <g id="line2d_9">
                <path d="M 687.0744 168.764746
L 687.0744 178.123306
" clip-path="url(#p53a36e0bc4)" style="fill: none; stroke: #24363e; stroke-width: 1.7; stroke-linecap: round"/>
               </g>
               <g id="text_9">
                <text style="fill: #24363e; font: 700 14px 'Lato'; text-anchor: middle" x="687.0744" y="196.470184" transform="rotate(-0, 687.0744, 196.470184)">Mean → 0.65</text>
               </g>
               <g id="text_10">
                <text style="fill: #24363e; font: 11.2px 'Lato'; text-anchor: middle" x="687.0744" y="232.60455" transform="rotate(-0, 687.0744, 232.60455)">Balance with weights 2:1:1</text>
               </g>
               <g id="line2d_10">
                <path d="M 666.9954 297.444946
L 687.0744 304.463866
L 707.1534 297.444946
" clip-path="url(#p53a36e0bc4)" style="fill: none; stroke: #24363e; stroke-width: 1.7; stroke-linecap: round"/>
               </g>
               <g id="line2d_11">
                <path d="M 687.0744 304.463866
L 687.0744 313.822426
" clip-path="url(#p53a36e0bc4)" style="fill: none; stroke: #24363e; stroke-width: 1.7; stroke-linecap: round"/>
               </g>
               <g id="text_11">
                <text style="fill: #24363e; font: 700 12.5px 'Lato'; text-anchor: middle" x="687.0744" y="331.737702" transform="rotate(-0, 687.0744, 331.737702)">Complement → 0.35</text>
               </g>
               <g id="text_12">
                <text style="fill: #24363e; font: 11.2px 'Lato'; text-anchor: middle" x="687.0744" y="368.36492" transform="rotate(-0, 687.0744, 368.36492)">1 − 0.65</text>
               </g>
               <g id="text_13">
                <text style="fill: #24363e; font: 11.4px 'Lato'; text-anchor: middle" x="414" y="447.906836" transform="rotate(-0, 414, 447.906836)">These are heuristic strengths; a separate comparison chooses the decision.</text>
               </g>
               <g id="patch_23">
                <path d="M 381.8736 164.553394
C 383.151603 164.553394 384.377435 164.257571 385.281119 163.731076
C 386.184804 163.204581 386.69256 162.490401 386.69256 161.745826
C 386.69256 161.00125 386.184804 160.28707 385.281119 159.760575
C 384.377435 159.234081 383.151603 158.938258 381.8736 158.938258
C 380.595597 158.938258 379.369765 159.234081 378.466081 159.760575
C 377.562396 160.28707 377.05464 161.00125 377.05464 161.745826
C 377.05464 162.490401 377.562396 163.204581 378.466081 163.731076
C 379.369765 164.257571 380.595597 164.553394 381.8736 164.553394
z
" clip-path="url(#p53a36e0bc4)" style="fill: #fff4d9; stroke: #24363e; stroke-width: 1.4; stroke-linejoin: miter"/>
               </g>
               <g id="patch_24">
                <path d="M 422.0316 164.553394
C 423.309603 164.553394 424.535435 164.257571 425.439119 163.731076
C 426.342804 163.204581 426.85056 162.490401 426.85056 161.745826
C 426.85056 161.00125 426.342804 160.28707 425.439119 159.760575
C 424.535435 159.234081 423.309603 158.938258 422.0316 158.938258
C 420.753597 158.938258 419.527765 159.234081 418.624081 159.760575
C 417.720396 160.28707 417.21264 161.00125 417.21264 161.745826
C 417.21264 162.490401 417.720396 163.204581 418.624081 163.731076
C 419.527765 164.257571 420.753597 164.553394 422.0316 164.553394
z
" clip-path="url(#p53a36e0bc4)" style="fill: #fff4d9; stroke: #24363e; stroke-width: 1.4; stroke-linejoin: miter"/>
               </g>
               <g id="patch_25">
                <path d="M 401.9526 180.930874
C 403.230603 180.930874 404.456435 180.635051 405.360119 180.108556
C 406.263804 179.582061 406.77156 178.867881 406.77156 178.123306
C 406.77156 177.37873 406.263804 176.66455 405.360119 176.138055
C 404.456435 175.611561 403.230603 175.315738 401.9526 175.315738
C 400.674597 175.315738 399.448765 175.611561 398.545081 176.138055
C 397.641396 176.66455 397.13364 177.37873 397.13364 178.123306
C 397.13364 178.867881 397.641396 179.582061 398.545081 180.108556
C 399.448765 180.635051 400.674597 180.930874 401.9526 180.930874
z
" clip-path="url(#p53a36e0bc4)" style="fill: #fff4d9; stroke: #24363e; stroke-width: 1.4; stroke-linejoin: miter"/>
               </g>
               <g id="patch_26">
                <path d="M 381.8736 300.252514
C 383.151603 300.252514 384.377435 299.956691 385.281119 299.430196
C 386.184804 298.903701 386.69256 298.189521 386.69256 297.444946
C 386.69256 296.70037 386.184804 295.98619 385.281119 295.459695
C 384.377435 294.933201 383.151603 294.637378 381.8736 294.637378
C 380.595597 294.637378 379.369765 294.933201 378.466081 295.459695
C 377.562396 295.98619 377.05464 296.70037 377.05464 297.444946
C 377.05464 298.189521 377.562396 298.903701 378.466081 299.430196
C 379.369765 299.956691 380.595597 300.252514 381.8736 300.252514
z
" clip-path="url(#p53a36e0bc4)" style="fill: #fff4d9; stroke: #24363e; stroke-width: 1.4; stroke-linejoin: miter"/>
               </g>
               <g id="patch_27">
                <path d="M 422.0316 300.252514
C 423.309603 300.252514 424.535435 299.956691 425.439119 299.430196
C 426.342804 298.903701 426.85056 298.189521 426.85056 297.444946
C 426.85056 296.70037 426.342804 295.98619 425.439119 295.459695
C 424.535435 294.933201 423.309603 294.637378 422.0316 294.637378
C 420.753597 294.637378 419.527765 294.933201 418.624081 295.459695
C 417.720396 295.98619 417.21264 296.70037 417.21264 297.444946
C 417.21264 298.189521 417.720396 298.903701 418.624081 299.430196
C 419.527765 299.956691 420.753597 300.252514 422.0316 300.252514
z
" clip-path="url(#p53a36e0bc4)" style="fill: #fff4d9; stroke: #24363e; stroke-width: 1.4; stroke-linejoin: miter"/>
               </g>
               <g id="patch_28">
                <path d="M 401.9526 316.629994
C 403.230603 316.629994 404.456435 316.334171 405.360119 315.807676
C 406.263804 315.281181 406.77156 314.567001 406.77156 313.822426
C 406.77156 313.07785 406.263804 312.36367 405.360119 311.837175
C 404.456435 311.310681 403.230603 311.014858 401.9526 311.014858
C 400.674597 311.014858 399.448765 311.310681 398.545081 311.837175
C 397.641396 312.36367 397.13364 313.07785 397.13364 313.822426
C 397.13364 314.567001 397.641396 315.281181 398.545081 315.807676
C 399.448765 316.334171 400.674597 316.629994 401.9526 316.629994
z
" clip-path="url(#p53a36e0bc4)" style="fill: #fff4d9; stroke: #24363e; stroke-width: 1.4; stroke-linejoin: miter"/>
               </g>
               <g id="patch_29">
                <path d="M 666.9954 164.553394
C 668.273403 164.553394 669.499235 164.257571 670.402919 163.731076
C 671.306604 163.204581 671.81436 162.490401 671.81436 161.745826
C 671.81436 161.00125 671.306604 160.28707 670.402919 159.760575
C 669.499235 159.234081 668.273403 158.938258 666.9954 158.938258
C 665.717397 158.938258 664.491565 159.234081 663.587881 159.760575
C 662.684196 160.28707 662.17644 161.00125 662.17644 161.745826
C 662.17644 162.490401 662.684196 163.204581 663.587881 163.731076
C 664.491565 164.257571 665.717397 164.553394 666.9954 164.553394
z
" clip-path="url(#p53a36e0bc4)" style="fill: #fff4d9; stroke: #24363e; stroke-width: 1.4; stroke-linejoin: miter"/>
               </g>
               <g id="patch_30">
                <path d="M 707.1534 164.553394
C 708.431403 164.553394 709.657235 164.257571 710.560919 163.731076
C 711.464604 163.204581 711.97236 162.490401 711.97236 161.745826
C 711.97236 161.00125 711.464604 160.28707 710.560919 159.760575
C 709.657235 159.234081 708.431403 158.938258 707.1534 158.938258
C 705.875397 158.938258 704.649565 159.234081 703.745881 159.760575
C 702.842196 160.28707 702.33444 161.00125 702.33444 161.745826
C 702.33444 162.490401 702.842196 163.204581 703.745881 163.731076
C 704.649565 164.257571 705.875397 164.553394 707.1534 164.553394
z
" clip-path="url(#p53a36e0bc4)" style="fill: #fff4d9; stroke: #24363e; stroke-width: 1.4; stroke-linejoin: miter"/>
               </g>
               <g id="patch_31">
                <path d="M 687.0744 180.930874
C 688.352403 180.930874 689.578235 180.635051 690.481919 180.108556
C 691.385604 179.582061 691.89336 178.867881 691.89336 178.123306
C 691.89336 177.37873 691.385604 176.66455 690.481919 176.138055
C 689.578235 175.611561 688.352403 175.315738 687.0744 175.315738
C 685.796397 175.315738 684.570565 175.611561 683.666881 176.138055
C 682.763196 176.66455 682.25544 177.37873 682.25544 178.123306
C 682.25544 178.867881 682.763196 179.582061 683.666881 180.108556
C 684.570565 180.635051 685.796397 180.930874 687.0744 180.930874
z
" clip-path="url(#p53a36e0bc4)" style="fill: #fff4d9; stroke: #24363e; stroke-width: 1.4; stroke-linejoin: miter"/>
               </g>
               <g id="patch_32">
                <path d="M 666.9954 300.252514
C 668.273403 300.252514 669.499235 299.956691 670.402919 299.430196
C 671.306604 298.903701 671.81436 298.189521 671.81436 297.444946
C 671.81436 296.70037 671.306604 295.98619 670.402919 295.459695
C 669.499235 294.933201 668.273403 294.637378 666.9954 294.637378
C 665.717397 294.637378 664.491565 294.933201 663.587881 295.459695
C 662.684196 295.98619 662.17644 296.70037 662.17644 297.444946
C 662.17644 298.189521 662.684196 298.903701 663.587881 299.430196
C 664.491565 299.956691 665.717397 300.252514 666.9954 300.252514
z
" clip-path="url(#p53a36e0bc4)" style="fill: #fff4d9; stroke: #24363e; stroke-width: 1.4; stroke-linejoin: miter"/>
               </g>
               <g id="patch_33">
                <path d="M 707.1534 300.252514
C 708.431403 300.252514 709.657235 299.956691 710.560919 299.430196
C 711.464604 298.903701 711.97236 298.189521 711.97236 297.444946
C 711.97236 296.70037 711.464604 295.98619 710.560919 295.459695
C 709.657235 294.933201 708.431403 294.637378 707.1534 294.637378
C 705.875397 294.637378 704.649565 294.933201 703.745881 295.459695
C 702.842196 295.98619 702.33444 296.70037 702.33444 297.444946
C 702.33444 298.189521 702.842196 298.903701 703.745881 299.430196
C 704.649565 299.956691 705.875397 300.252514 707.1534 300.252514
z
" clip-path="url(#p53a36e0bc4)" style="fill: #fff4d9; stroke: #24363e; stroke-width: 1.4; stroke-linejoin: miter"/>
               </g>
               <g id="patch_34">
                <path d="M 687.0744 316.629994
C 688.352403 316.629994 689.578235 316.334171 690.481919 315.807676
C 691.385604 315.281181 691.89336 314.567001 691.89336 313.822426
C 691.89336 313.07785 691.385604 312.36367 690.481919 311.837175
C 689.578235 311.310681 688.352403 311.014858 687.0744 311.014858
C 685.796397 311.014858 684.570565 311.310681 683.666881 311.837175
C 682.763196 312.36367 682.25544 313.07785 682.25544 313.822426
C 682.25544 314.567001 682.763196 315.281181 683.666881 315.807676
C 684.570565 316.334171 685.796397 316.629994 687.0744 316.629994
z
" clip-path="url(#p53a36e0bc4)" style="fill: #fff4d9; stroke: #24363e; stroke-width: 1.4; stroke-linejoin: miter"/>
               </g>
              </g>
             </g>
             <defs>
              <clipPath id="p53a36e0bc4">
               <rect x="12.42" y="7.236" width="803.16" height="467.928"/>
              </clipPath>
             </defs>
            </g>
           </g>
          </g>
         </g>
        </g>
       </g>
      </g>
     </g>
    </g>
   </g>
  </g>
 </g>
</svg>
